<?xml version="1.0" standalone="no"?>
<!DOCTYPE svg PUBLIC "-//W3C//DTD SVG 20010904//EN"
 "http://www.w3.org/TR/2001/REC-SVG-20010904/DTD/svg10.dtd">
<svg version="1.0" xmlns="http://www.w3.org/2000/svg"
 width="650.000000pt" height="650.000000pt" viewBox="0 0 650.000000 650.000000"
 preserveAspectRatio="xMidYMid meet">
<metadata>
Created by potrace 1.11, written by Peter Selinger 2001-2013
</metadata>
<g transform="translate(0.000000,650.000000) scale(0.100000,-0.100000)"
fill="#000000" stroke="none">
<path d="M1127 5627 c-34 -16 -107 -87 -107 -104 0 -7 -4 -13 -8 -13 -16 0
-78 -199 -97 -310 -3 -19 -8 -42 -10 -50 -2 -8 -7 -40 -10 -70 -4 -30 -8 -57
-10 -60 -2 -3 -6 -33 -10 -65 -4 -33 -8 -71 -10 -84 -6 -36 -19 -249 -18 -311
0 -65 13 -304 18 -340 2 -14 6 -43 9 -65 4 -22 9 -60 12 -85 3 -25 7 -53 10
-62 5 -16 10 -38 20 -85 2 -12 13 -50 24 -85 26 -81 25 -95 -6 -172 -36 -91
-77 -134 -231 -238 -141 -96 -161 -119 -141 -162 16 -36 56 -48 147 -44 52 2
80 -1 77 -7 -35 -75 -79 -195 -92 -253 l-16 -72 -67 6 c-36 3 -82 7 -101 9
-44 5 -210 6 -230 2 -73 -16 -80 -20 -80 -37 0 -11 9 -27 19 -37 24 -22 152
-73 195 -77 17 -2 49 -8 71 -14 22 -6 54 -13 70 -16 17 -2 49 -7 73 -11 l42
-7 1 -51 c3 -187 49 -334 150 -482 79 -116 111 -110 150 26 12 43 25 79 28 79
3 -1 23 -37 43 -80 l37 -80 -23 -6 c-12 -3 -29 -6 -37 -7 -8 -2 -20 -6 -26
-10 -7 -5 -17 -5 -23 -2 -5 3 -10 1 -10 -4 0 -6 -3 -10 -7 -9 -10 2 -62 -11
-88 -22 -19 -8 -91 -32 -107 -36 -5 -1 -11 -3 -15 -4 -5 -1 -11 -2 -16 -1 -4
0 -7 -4 -7 -10 0 -5 -4 -8 -8 -5 -5 3 -20 -1 -35 -9 -14 -7 -28 -11 -31 -7 -3
3 -6 0 -6 -7 0 -7 -3 -10 -8 -7 -4 2 -30 -6 -57 -19 -28 -12 -54 -20 -59 -17
-5 3 -6 0 -2 -6 5 -8 -1 -12 -14 -12 -12 0 -19 -4 -15 -9 3 -5 -4 -13 -16 -16
-11 -4 -27 -21 -34 -38 -12 -28 -11 -33 7 -45 23 -16 155 -25 163 -11 4 5 11
9 16 9 6 0 7 -6 3 -13 -6 -9 -5 -9 7 0 12 10 41 17 114 28 11 2 32 8 47 14 16
6 28 8 28 5 0 -4 6 -2 13 3 6 6 20 9 30 8 9 -2 17 0 17 4 0 4 8 8 18 9 25 3
40 6 107 27 33 10 65 19 70 20 6 1 12 3 15 4 3 1 15 4 27 7 12 2 28 5 35 6 7
2 16 7 20 13 4 5 26 -13 50 -40 61 -70 119 -124 151 -143 33 -20 33 -26 4 -77
-49 -86 -92 -221 -77 -245 9 -14 54 45 82 108 42 96 232 391 303 471 136 155
352 347 370 329 2 -2 -4 -28 -14 -58 -18 -53 -18 -80 -1 -80 5 0 28 34 51 75
25 43 50 75 59 75 8 0 28 -12 43 -26 l28 -26 -26 -46 c-26 -47 -46 -152 -29
-152 11 0 31 30 58 85 l19 40 7 -40 c12 -63 2 -418 -15 -545 -2 -19 -7 -71
-10 -115 -3 -44 -8 -98 -12 -120 -11 -66 -9 -133 3 -150 17 -23 50 -11 60 23
14 52 22 101 23 139 l1 33 48 -19 c26 -10 69 -22 95 -25 27 -4 59 -9 70 -12
12 -2 47 -6 77 -9 30 -3 69 -7 85 -10 31 -4 112 -11 225 -20 85 -7 537 -7 620
0 159 13 189 16 315 29 72 8 178 26 283 48 56 11 104 19 107 17 2 -3 6 -29 9
-59 9 -102 27 -150 55 -150 34 0 44 58 28 170 -3 25 -9 77 -12 115 -3 39 -8
88 -10 110 -18 161 -27 499 -16 559 6 27 7 26 37 -30 40 -73 54 -79 54 -22 0
29 -10 61 -30 96 -33 61 -28 82 23 103 33 14 27 19 82 -78 20 -34 40 -65 45
-68 15 -9 11 54 -5 100 -8 21 -13 41 -11 42 6 6 57 -25 104 -63 119 -97 372
-377 372 -413 0 -5 4 -11 9 -13 13 -5 119 -177 181 -293 59 -113 68 -125 85
-125 29 0 -24 172 -81 262 -14 22 -24 41 -22 42 2 1 19 13 38 26 42 28 124
114 148 152 13 22 23 28 47 26 16 -1 35 -4 40 -7 11 -6 29 -10 58 -13 9 -1 17
-5 17 -8 0 -7 13 -10 59 -13 16 -1 27 -5 24 -9 -2 -5 6 -8 19 -8 13 0 34 -8
47 -17 14 -9 21 -11 17 -5 -9 16 7 15 22 0 7 -7 12 -8 12 -4 0 5 7 3 15 -4 8
-7 15 -10 15 -6 0 3 12 1 28 -5 15 -6 36 -12 47 -14 11 -2 31 -6 45 -10 14 -4
43 -9 65 -12 22 -3 42 -8 45 -12 5 -7 144 -7 170 0 38 11 44 46 13 77 -24 24
-126 82 -134 76 -5 -3 -9 -1 -9 4 0 9 -78 37 -92 34 -5 -1 -8 3 -8 10 0 6 -3
9 -6 5 -4 -3 -20 1 -36 9 -21 11 -28 12 -22 3 4 -7 -3 -5 -17 4 -13 9 -31 17
-39 17 -9 0 -21 5 -28 12 -10 10 -48 19 -94 21 -23 2 -23 13 0 19 19 5 87 98
129 177 30 58 69 172 78 231 3 25 8 54 10 65 2 11 4 46 4 77 l1 57 53 10 c28
6 69 13 91 17 301 46 468 145 300 179 -30 6 -157 6 -229 1 -75 -6 -198 -17
-208 -19 -6 -1 -21 39 -34 88 -20 74 -46 143 -89 240 -3 6 25 9 77 7 106 -5
127 1 144 40 20 50 3 71 -129 160 -151 101 -189 137 -228 215 -37 75 -39 126
-10 204 12 31 24 71 27 89 3 18 8 36 10 40 4 7 28 154 40 250 23 170 22 457
-1 645 -3 28 -8 66 -9 85 -2 19 -6 51 -10 70 -3 19 -8 51 -10 70 -2 19 -8 55
-13 80 -6 25 -13 61 -16 81 -3 20 -7 42 -10 50 -42 139 -56 177 -86 221 -19
28 -52 65 -73 82 -36 28 -45 31 -110 30 -53 -1 -83 -7 -114 -23 -24 -12 -43
-19 -43 -16 0 3 -6 1 -12 -5 -7 -5 -56 -40 -108 -77 -52 -36 -102 -73 -111
-82 -9 -9 -49 -45 -90 -81 -95 -82 -384 -371 -474 -474 -39 -43 -75 -83 -81
-90 -20 -21 -149 -191 -168 -221 -46 -71 -45 -71 -119 4 l-67 69 37 7 c21 5
45 10 53 12 8 2 46 5 84 7 60 2 72 6 91 28 19 22 22 37 16 79 -4 31 -97 72
-212 94 -12 2 -28 6 -37 9 -16 5 -36 8 -147 22 -27 3 -59 8 -70 10 -26 5 -264
5 -290 0 -11 -2 -42 -7 -70 -10 -40 -6 -191 -35 -265 -51 -8 -2 -35 -11 -59
-19 -24 -9 -47 -16 -51 -16 -4 0 -5 34 -2 75 2 41 1 94 -2 119 -6 36 -12 47
-38 59 -19 9 -39 12 -52 7 -24 -9 -122 -147 -165 -234 -17 -34 -43 -74 -58
-91 -16 -16 -51 -57 -78 -89 -51 -62 -155 -165 -166 -166 -3 0 -12 11 -19 25
-7 14 -17 25 -22 25 -4 0 -8 5 -8 12 0 12 -75 116 -99 136 -8 6 -12 12 -8 12
7 0 -16 30 -73 91 -19 21 -57 64 -85 96 -79 92 -422 431 -514 508 -46 39 -89
75 -95 80 -37 33 -171 117 -216 135 -66 26 -156 34 -193 17z m4261 -169 c38
-64 98 -286 107 -400 2 -20 6 -45 9 -55 18 -60 40 -344 39 -508 -1 -169 -25
-504 -38 -526 -2 -3 -7 -25 -10 -50 -3 -24 -7 -51 -8 -60 -2 -8 -13 -28 -25
-43 -25 -32 -28 -76 -11 -158 21 -99 82 -193 173 -261 l44 -34 -66 -1 c-50 0
-70 -5 -84 -20 -38 -38 -18 -112 38 -143 32 -17 66 -82 105 -201 44 -135 45
-132 -66 -144 -33 -3 -62 -7 -65 -9 -3 -2 -34 -6 -70 -10 -36 -4 -67 -8 -70
-10 -3 -2 -24 -6 -46 -9 -22 -4 -51 -8 -64 -11 -14 -3 -52 -10 -85 -15 -33 -6
-94 -18 -135 -26 -41 -9 -86 -18 -100 -20 -20 -4 -77 -15 -140 -29 -24 -5 -87
-19 -95 -20 -34 -8 -165 -49 -190 -60 -16 -7 -46 -18 -66 -24 -50 -16 -79 -46
-79 -81 0 -59 76 -75 210 -44 36 8 81 17 100 20 19 2 51 9 70 14 19 5 51 11
70 14 19 3 58 10 85 15 67 14 102 20 150 27 22 3 56 9 75 14 19 5 57 12 83 15
27 3 67 9 90 14 23 5 62 12 87 15 25 3 56 8 70 11 14 3 41 7 60 10 19 2 64 8
99 14 36 6 67 9 69 7 5 -5 3 -164 -2 -191 -2 -11 -7 -40 -10 -65 -10 -72 -16
-103 -28 -139 l-11 -34 -26 79 c-46 134 -72 173 -120 180 -40 7 -65 -20 -91
-96 -44 -127 -129 -286 -130 -242 0 7 -5 10 -10 7 -6 -4 -16 -3 -23 2 -7 5
-28 10 -47 12 -19 2 -38 8 -41 13 -4 6 -12 7 -18 4 -6 -4 -17 -4 -23 1 -7 4
-24 8 -38 9 -14 1 -26 3 -27 4 -2 1 -12 4 -23 5 -11 1 -21 4 -22 5 -2 1 -12 4
-23 5 -49 7 -130 23 -130 25 0 3 -78 16 -177 29 -5 1 -16 9 -27 20 -43 43
-129 100 -175 115 -79 27 -159 12 -213 -41 -7 -6 -13 -16 -13 -22 0 -6 -3 -11
-7 -11 -10 0 -40 -74 -51 -125 -7 -32 -9 -420 -2 -420 1 0 3 -18 4 -40 2 -22
6 -84 10 -138 l7 -97 -33 -1 c-18 -1 -42 -3 -53 -4 -11 -1 -67 -6 -125 -10
-58 -4 -123 -9 -145 -10 -294 -26 -931 -25 -1131 1 -19 2 -57 6 -86 9 -29 2
-62 6 -73 9 -11 2 -45 7 -76 10 -31 4 -72 11 -90 16 -19 6 -48 10 -66 10 l-33
0 5 57 c26 312 26 571 -1 663 -8 27 -50 98 -68 115 -46 41 -153 56 -204 29
-15 -8 -31 -14 -37 -14 -5 0 -36 -21 -69 -48 -88 -71 -104 -80 -160 -88 -28
-4 -54 -7 -58 -6 -5 1 -8 -1 -8 -6 0 -4 -12 -8 -27 -8 -50 -3 -92 -10 -99 -17
-4 -4 -18 -7 -31 -7 -14 0 -34 -5 -45 -11 -16 -8 -19 -8 -13 1 5 9 2 9 -11 2
-11 -5 -48 -15 -84 -22 -36 -7 -69 -15 -75 -19 -5 -3 -16 -6 -25 -7 -8 0 -31
-4 -51 -8 l-36 -8 -42 84 c-23 46 -54 119 -69 163 -20 59 -34 83 -53 94 -60
34 -107 -16 -160 -173 -30 -88 -31 -87 -53 24 -27 138 -39 349 -18 337 4 -3
32 -8 63 -11 31 -4 67 -9 80 -11 60 -12 77 -15 129 -21 30 -3 57 -7 60 -9 3
-2 26 -6 50 -10 25 -4 81 -13 125 -21 44 -7 123 -21 175 -30 52 -8 102 -18
110 -21 8 -4 18 -6 22 -5 6 1 149 -26 233 -44 172 -38 248 -43 283 -18 29 20
29 64 -1 92 -24 23 -221 97 -283 107 -20 3 -40 8 -45 11 -10 6 -365 78 -429
87 -3 0 -21 4 -40 9 -19 4 -54 10 -76 13 -23 3 -53 8 -65 11 -27 6 -182 30
-249 39 -25 3 -54 8 -65 10 -11 2 -30 4 -43 4 -21 1 -23 4 -17 39 16 107 88
270 129 291 57 31 76 105 38 144 -16 15 -33 19 -87 18 l-68 -1 42 31 c59 42
96 85 135 154 57 101 72 205 40 267 -16 30 -21 49 -29 103 -3 17 -7 39 -9 50
-20 98 -39 380 -39 566 0 152 9 263 34 429 24 166 26 179 38 236 18 90 34 149
44 162 5 6 7 12 4 12 -9 0 23 71 46 104 18 25 25 28 59 23 38 -5 123 -50 172
-91 13 -12 34 -28 47 -36 93 -62 474 -429 960 -926 131 -134 184 -184 194
-184 7 0 -25 81 -42 105 -17 26 -17 45 2 45 15 0 173 152 248 240 46 54 47 54
45 25 -2 -41 17 -73 49 -81 30 -8 89 10 118 36 50 45 191 81 465 120 47 6 175
7 274 2 l29 -2 -33 -22 c-64 -44 -61 -126 5 -154 63 -26 168 -120 221 -198 53
-77 164 -328 164 -370 0 -2 -26 4 -58 14 -58 18 -72 21 -167 37 -109 19 -189
-5 -162 -47 14 -23 48 -38 207 -89 69 -22 155 -53 192 -70 67 -30 105 -33 119
-9 15 24 22 182 10 240 -14 67 -59 179 -106 264 -19 34 -35 67 -35 74 0 6 35
48 78 93 170 179 726 727 738 727 2 0 14 10 27 23 145 140 335 257 379 236 9
-5 25 -23 36 -41z m200 -3351 c14 -16 14 -17 -6 -14 -12 2 -25 6 -28 10 -4 4
-18 7 -30 7 -13 0 -25 4 -29 10 -3 5 -12 7 -19 4 -29 -11 -25 18 10 88 l36 72
25 -79 c14 -44 32 -88 41 -98z m-628 -61 c14 -3 39 -9 55 -13 17 -4 35 -7 40
-8 6 -1 12 -3 15 -4 7 -3 40 -11 70 -16 14 -2 27 -4 30 -5 3 -2 8 -2 13 -1 13
2 7 -15 -12 -38 -11 -12 -36 -47 -57 -77 -20 -30 -40 -54 -44 -54 -4 0 -23 24
-43 53 -20 29 -44 62 -54 73 -10 11 -33 38 -50 61 -35 45 -35 45 37 29z
m-3346 -18 c-10 -12 -23 -28 -29 -34 -5 -7 -37 -49 -69 -93 -32 -45 -60 -81
-61 -81 -4 0 -107 142 -111 155 -3 8 16 16 58 25 35 7 68 16 73 20 6 3 20 5
33 4 12 0 22 3 22 8 0 6 6 8 13 5 8 -3 19 -2 25 2 6 3 23 8 38 9 27 2 27 2 8
-20z"/>
<path d="M1220 4930 c-31 -31 -57 -90 -74 -170 -22 -99 -24 -121 -32 -282 -10
-205 19 -326 100 -409 19 -20 37 -48 40 -63 11 -63 35 -53 61 24 9 27 29 67
46 89 44 61 40 74 -21 69 -27 -3 -50 -3 -50 -1 0 8 105 54 159 69 68 19 75 33
39 74 -55 61 -55 61 65 20 63 -22 123 -41 133 -43 11 -1 24 -6 31 -10 6 -4 18
-4 26 -1 13 4 13 11 5 36 -33 93 -184 324 -302 462 -82 95 -121 129 -168 143
-35 11 -41 10 -58 -7z"/>
<path d="M5225 4931 c-21 -9 -110 -98 -161 -161 -16 -19 -31 -37 -35 -40 -33
-28 -208 -306 -246 -391 -14 -32 -2 -55 23 -44 11 4 26 9 36 11 9 2 69 22 133
44 90 30 114 36 104 22 -8 -9 -24 -30 -36 -45 -13 -16 -23 -34 -23 -41 0 -8
26 -21 60 -30 70 -20 172 -65 150 -67 -8 0 -32 0 -52 1 -48 2 -49 -14 -9 -71
17 -22 37 -62 46 -89 26 -77 50 -87 61 -24 3 14 20 42 39 61 43 44 78 118 95
200 12 59 9 298 -5 378 -3 17 -10 59 -16 95 -12 69 -44 154 -69 183 -15 18
-60 22 -95 8z"/>
<path d="M1780 3931 c-52 -14 -22 -79 55 -118 16 -9 70 -43 119 -76 l90 -60
-51 -26 c-82 -42 -134 -95 -176 -182 -115 -233 -34 -566 159 -660 115 -55 218
-39 316 49 34 31 100 128 104 155 1 4 3 9 4 12 1 3 3 8 4 13 2 4 8 27 15 51
15 53 20 151 11 219 -5 44 -4 49 12 44 10 -2 21 -8 24 -13 3 -5 28 -9 56 -9
43 0 54 4 83 33 49 49 69 146 52 244 -8 50 -43 79 -81 69 -28 -7 -32 -17 -41
-101 -4 -32 -9 -63 -11 -67 -7 -10 -29 7 -140 110 -199 182 -331 267 -479 308
-54 15 -85 16 -125 5z"/>
<path d="M4605 3912 c-142 -50 -243 -118 -435 -291 -52 -47 -104 -94 -114
-104 -25 -22 -34 -9 -42 60 -9 82 -13 92 -38 99 -32 8 -64 -11 -77 -44 -6 -15
-11 -59 -11 -98 0 -144 79 -232 178 -200 20 6 20 3 20 -101 -1 -131 25 -222
88 -312 35 -51 126 -134 126 -115 0 4 6 2 13 -4 14 -12 67 -22 122 -24 85 -2
192 72 249 172 17 30 31 57 32 60 0 3 8 30 17 60 35 115 24 281 -25 389 -34
74 -98 147 -155 177 -49 26 -51 29 -35 44 29 26 114 85 167 115 91 51 138 110
105 130 -32 20 -108 15 -185 -13z"/>
<path d="M3164 2891 c-43 -11 -51 -17 -56 -46 -4 -16 2 -35 14 -51 23 -28 122
-94 142 -94 20 0 115 79 130 109 16 31 6 65 -23 80 -22 12 -159 13 -207 2z"/>
<path d="M2861 2470 c-78 -28 -144 -90 -182 -169 -32 -67 -35 -103 -11 -124
26 -23 55 -10 78 35 20 38 77 94 119 116 44 23 136 24 198 2 28 -10 99 -39
157 -65 135 -60 187 -76 268 -80 138 -7 281 80 307 185 8 34 -10 80 -31 80 -9
0 -46 -20 -83 -44 -81 -54 -143 -76 -202 -72 -61 5 -70 8 -249 84 -141 60
-162 66 -235 69 -62 3 -92 -1 -134 -17z"/>
</g>
</svg>
